<svg width="1024" height="1024" viewBox="0 0 1024 1024" fill="none" xmlns="http://www.w3.org/2000/svg">
<path d="M309.438 746.373C253.773 746.373 223.256 716.1 223.256 660.68V365.27C223.256 309.85 253.773 279.576 309.438 279.576H719.838C775.746 279.576 806.02 309.85 806.02 365.27V660.68C806.02 716.1 775.746 746.373 719.838 746.373H309.438ZM286.244 372.838V382.359H743.031V372.838C743.031 352.086 732.533 342.564 713.002 342.564H316.273C296.742 342.564 286.244 352.086 286.244 372.838ZM316.273 683.385H713.002C732.533 683.385 743.031 673.863 743.031 653.111V428.258H286.244V653.111C286.244 673.863 296.742 683.385 316.273 683.385Z" fill="black"/>
</svg>
